# xmcd
#
# Track frame offsets: 
#        182
#        15017
#        24595
#        37292
#        49390
#        59395
#        76622
#        89745
#        107570
#        119490
#        134867
#        155320
#        178242
#        194850
#        206285
#        219142
#        230630
#        244997
#        259820
#        270072
#        282907
#        299392
#        311115
#        330077
#
# Disc length: 4647 seconds
#
# Revision: 6
# Processed by: cddbd v1.5.2PL0 Copyright (c) Steve Scherf et al.
# Submitted via: ExactAudioCopyFreeDBPlugin 1.0
#
DISCID=61122518
DTITLE=Various Artist - The Doo Wop Boxes I, II, and III [Rhino box set
DTITLE=s]
DYEAR=2000
DGENRE=Rhythm and Blues
TTITLE0=Kenny Vance - Looking for an Echo
TTITLE1=The Beach Boys - Barbara Ann
TTITLE2=Godfrey Daniel - Whole Lotta Love
TTITLE3=The Darts - Sometime Lately
TTITLE4=The Capris - There's a Moon Out Again
TTITLE5=Ruben Guevara - The Star Spangled Banner
TTITLE6=The Manhattan Transfer - Baby Come Back to Me (The Morse Code 
TTITLE6=of Love)
TTITLE7=The Stray Cats - I Won't Stand in Your Way
TTITLE8=Big Daddy - Eye of the Tiger
TTITLE9=The Flying Pickets - When You're Young and in Love
TTITLE10=Art and Aaron Neville - Medley:  This is My Story - We Belong T
TTITLE10=ogether
TTITLE11=The New Creations - Something on Your Mind
TTITLE12=The Bobs - You Really Got a Hold on Me
TTITLE13=B.Q.E. - Countdown to Love
TTITLE14=Boyz II Men - In the Still of the Nite (I'll Remember)
TTITLE15=Linda Ronstadt - It's Too Soon to Know
TTITLE16=Pure Gold - Your Love
TTITLE17=Johnny Staton and The Feathers - Charlene
TTITLE18=Little Isidore and The Inquisitors - My Love for You
TTITLE19=Big Sandy - Have Love Will Travel
TTITLE20=Candye Kane - Forgive Me
TTITLE21=The Mighty Echoes - Gloria
TTITLE22=Paul Simon - Quality
TTITLE23=The Persuasions - Looking for an Echo
EXTD=
EXTT0=
EXTT1=
EXTT2=
EXTT3=
EXTT4=
EXTT5=
EXTT6=
EXTT7=
EXTT8=
EXTT9=
EXTT10=
EXTT11=
EXTT12=
EXTT13=
EXTT14=
EXTT15=
EXTT16=
EXTT17=
EXTT18=
EXTT19=
EXTT20=
EXTT21=
EXTT22=
EXTT23=
PLAYORDER=
